<mxfile host="app.diagrams.net" modified="2023-09-05T12:49:25.404Z" agent="Mozilla/5.0 (Macintosh; Intel Mac OS X 10_15_7) AppleWebKit/537.36 (KHTML, like Gecko) Chrome/109.0.0.0 Safari/537.36" etag="OhCW6EQPZeN5CTNS35rP" version="21.5.1" type="github">
  <diagram name="Page-1" id="h5ZXFg4vZbyuFzR2Lfhg">
    <mxGraphModel dx="1434" dy="1968" grid="1" gridSize="10" guides="1" tooltips="1" connect="1" arrows="1" fold="1" page="1" pageScale="1" pageWidth="827" pageHeight="1169" math="0" shadow="0">
      <root>
        <mxCell id="0" />
        <mxCell id="1" parent="0" />
        <mxCell id="CMkOfORL7H792F49X8Uy-26" style="edgeStyle=orthogonalEdgeStyle;rounded=0;orthogonalLoop=1;jettySize=auto;html=1;entryX=0;entryY=0.5;entryDx=0;entryDy=0;" edge="1" parent="1" source="CMkOfORL7H792F49X8Uy-1" target="CMkOfORL7H792F49X8Uy-4">
          <mxGeometry relative="1" as="geometry" />
        </mxCell>
        <mxCell id="CMkOfORL7H792F49X8Uy-1" value="Mobile App&lt;br&gt;(React native for v1.0)" style="rounded=0;whiteSpace=wrap;html=1;" vertex="1" parent="1">
          <mxGeometry x="170" y="312.5" width="120" height="60" as="geometry" />
        </mxCell>
        <mxCell id="CMkOfORL7H792F49X8Uy-3" style="edgeStyle=orthogonalEdgeStyle;rounded=0;orthogonalLoop=1;jettySize=auto;html=1;exitX=0.9;exitY=0.5;exitDx=0;exitDy=0;exitPerimeter=0;entryX=0;entryY=0.5;entryDx=0;entryDy=0;" edge="1" parent="1" source="CMkOfORL7H792F49X8Uy-2" target="CMkOfORL7H792F49X8Uy-1">
          <mxGeometry relative="1" as="geometry" />
        </mxCell>
        <mxCell id="CMkOfORL7H792F49X8Uy-2" value="" style="shape=actor;whiteSpace=wrap;html=1;" vertex="1" parent="1">
          <mxGeometry x="40" y="325" width="30" height="35" as="geometry" />
        </mxCell>
        <mxCell id="CMkOfORL7H792F49X8Uy-21" style="edgeStyle=orthogonalEdgeStyle;rounded=0;orthogonalLoop=1;jettySize=auto;html=1;exitX=1;exitY=0.5;exitDx=0;exitDy=0;" edge="1" parent="1" source="CMkOfORL7H792F49X8Uy-4" target="CMkOfORL7H792F49X8Uy-10">
          <mxGeometry relative="1" as="geometry">
            <Array as="points">
              <mxPoint x="474" y="340" />
              <mxPoint x="557" y="340" />
              <mxPoint x="557" y="155" />
            </Array>
          </mxGeometry>
        </mxCell>
        <mxCell id="CMkOfORL7H792F49X8Uy-28" value="Based on current view &lt;br&gt;and integration" style="edgeLabel;html=1;align=center;verticalAlign=middle;resizable=0;points=[];" vertex="1" connectable="0" parent="CMkOfORL7H792F49X8Uy-21">
          <mxGeometry x="0.1796" relative="1" as="geometry">
            <mxPoint as="offset" />
          </mxGeometry>
        </mxCell>
        <mxCell id="CMkOfORL7H792F49X8Uy-22" style="edgeStyle=orthogonalEdgeStyle;rounded=0;orthogonalLoop=1;jettySize=auto;html=1;entryX=0;entryY=0.4;entryDx=0;entryDy=0;entryPerimeter=0;" edge="1" parent="1" source="CMkOfORL7H792F49X8Uy-4" target="CMkOfORL7H792F49X8Uy-14">
          <mxGeometry relative="1" as="geometry" />
        </mxCell>
        <mxCell id="CMkOfORL7H792F49X8Uy-29" value="Initiial &lt;br&gt;Integration" style="edgeLabel;html=1;align=center;verticalAlign=middle;resizable=0;points=[];" vertex="1" connectable="0" parent="CMkOfORL7H792F49X8Uy-22">
          <mxGeometry x="0.6348" y="-4" relative="1" as="geometry">
            <mxPoint x="1" as="offset" />
          </mxGeometry>
        </mxCell>
        <mxCell id="CMkOfORL7H792F49X8Uy-23" style="edgeStyle=orthogonalEdgeStyle;rounded=0;orthogonalLoop=1;jettySize=auto;html=1;entryX=0;entryY=0.5;entryDx=0;entryDy=0;" edge="1" parent="1" source="CMkOfORL7H792F49X8Uy-4" target="CMkOfORL7H792F49X8Uy-17">
          <mxGeometry relative="1" as="geometry" />
        </mxCell>
        <mxCell id="CMkOfORL7H792F49X8Uy-30" value="App specific &lt;br&gt;usecases" style="edgeLabel;html=1;align=center;verticalAlign=middle;resizable=0;points=[];" vertex="1" connectable="0" parent="CMkOfORL7H792F49X8Uy-23">
          <mxGeometry x="0.7284" y="1" relative="1" as="geometry">
            <mxPoint x="1" as="offset" />
          </mxGeometry>
        </mxCell>
        <mxCell id="CMkOfORL7H792F49X8Uy-4" value="Single Middleware/API layer&lt;br&gt;(Get list of integrated social media providers)&lt;br&gt;&lt;br&gt;(NodeJS for v1.0)" style="rounded=0;whiteSpace=wrap;html=1;" vertex="1" parent="1">
          <mxGeometry x="330" y="294" width="144" height="97" as="geometry" />
        </mxCell>
        <mxCell id="CMkOfORL7H792F49X8Uy-5" value="Facebook Service" style="rounded=0;whiteSpace=wrap;html=1;" vertex="1" parent="1">
          <mxGeometry x="670" width="121" height="60" as="geometry" />
        </mxCell>
        <mxCell id="CMkOfORL7H792F49X8Uy-6" value="Instagram Service" style="rounded=0;whiteSpace=wrap;html=1;" vertex="1" parent="1">
          <mxGeometry x="670" y="90" width="121" height="60" as="geometry" />
        </mxCell>
        <mxCell id="CMkOfORL7H792F49X8Uy-7" value="WhatsApp Service" style="rounded=0;whiteSpace=wrap;html=1;" vertex="1" parent="1">
          <mxGeometry x="670" y="183" width="121" height="60" as="geometry" />
        </mxCell>
        <mxCell id="CMkOfORL7H792F49X8Uy-24" style="edgeStyle=orthogonalEdgeStyle;rounded=0;orthogonalLoop=1;jettySize=auto;html=1;entryX=0;entryY=0.5;entryDx=0;entryDy=0;" edge="1" parent="1" source="CMkOfORL7H792F49X8Uy-10" target="CMkOfORL7H792F49X8Uy-16">
          <mxGeometry relative="1" as="geometry" />
        </mxCell>
        <mxCell id="CMkOfORL7H792F49X8Uy-27" value="Get Realtime data" style="edgeLabel;html=1;align=center;verticalAlign=middle;resizable=0;points=[];" vertex="1" connectable="0" parent="CMkOfORL7H792F49X8Uy-24">
          <mxGeometry x="-0.0504" y="-1" relative="1" as="geometry">
            <mxPoint as="offset" />
          </mxGeometry>
        </mxCell>
        <mxCell id="CMkOfORL7H792F49X8Uy-10" value="" style="swimlane;startSize=0;" vertex="1" parent="1">
          <mxGeometry x="640" y="-30" width="221" height="370" as="geometry" />
        </mxCell>
        <mxCell id="CMkOfORL7H792F49X8Uy-8" value="" style="rounded=0;whiteSpace=wrap;html=1;" vertex="1" parent="CMkOfORL7H792F49X8Uy-10">
          <mxGeometry x="30" y="290" width="121" height="36" as="geometry" />
        </mxCell>
        <mxCell id="CMkOfORL7H792F49X8Uy-11" value="Individual Social Media Services" style="text;html=1;align=center;verticalAlign=middle;resizable=0;points=[];autosize=1;strokeColor=none;fillColor=none;" vertex="1" parent="CMkOfORL7H792F49X8Uy-10">
          <mxGeometry x="10" width="200" height="30" as="geometry" />
        </mxCell>
        <mxCell id="CMkOfORL7H792F49X8Uy-12" value="" style="rounded=0;whiteSpace=wrap;html=1;" vertex="1" parent="CMkOfORL7H792F49X8Uy-10">
          <mxGeometry x="30" y="300" width="121" height="36" as="geometry" />
        </mxCell>
        <mxCell id="CMkOfORL7H792F49X8Uy-13" value="Other Services..." style="rounded=0;whiteSpace=wrap;html=1;" vertex="1" parent="CMkOfORL7H792F49X8Uy-10">
          <mxGeometry x="30" y="310" width="121" height="36" as="geometry" />
        </mxCell>
        <mxCell id="CMkOfORL7H792F49X8Uy-18" style="edgeStyle=orthogonalEdgeStyle;rounded=0;orthogonalLoop=1;jettySize=auto;html=1;entryX=0.5;entryY=1;entryDx=0;entryDy=0;" edge="1" parent="1" source="CMkOfORL7H792F49X8Uy-14" target="CMkOfORL7H792F49X8Uy-16">
          <mxGeometry relative="1" as="geometry">
            <Array as="points">
              <mxPoint x="1060" y="420" />
            </Array>
          </mxGeometry>
        </mxCell>
        <mxCell id="CMkOfORL7H792F49X8Uy-25" value="First time OAuth &lt;br&gt;connection during integration" style="edgeLabel;html=1;align=center;verticalAlign=middle;resizable=0;points=[];" vertex="1" connectable="0" parent="CMkOfORL7H792F49X8Uy-18">
          <mxGeometry x="-0.44" y="-1" relative="1" as="geometry">
            <mxPoint x="-9" y="-1" as="offset" />
          </mxGeometry>
        </mxCell>
        <mxCell id="CMkOfORL7H792F49X8Uy-14" value="Apps Service for OAuth" style="rounded=0;whiteSpace=wrap;html=1;" vertex="1" parent="1">
          <mxGeometry x="640" y="380" width="230" height="80" as="geometry" />
        </mxCell>
        <mxCell id="CMkOfORL7H792F49X8Uy-16" value="Social Media Servers" style="rounded=0;whiteSpace=wrap;html=1;" vertex="1" parent="1">
          <mxGeometry x="1000" y="125" width="120" height="60" as="geometry" />
        </mxCell>
        <mxCell id="CMkOfORL7H792F49X8Uy-20" style="edgeStyle=orthogonalEdgeStyle;rounded=0;orthogonalLoop=1;jettySize=auto;html=1;entryX=0;entryY=0.5;entryDx=0;entryDy=0;" edge="1" parent="1" source="CMkOfORL7H792F49X8Uy-17" target="CMkOfORL7H792F49X8Uy-19">
          <mxGeometry relative="1" as="geometry">
            <Array as="points">
              <mxPoint x="950" y="530" />
              <mxPoint x="950" y="530" />
            </Array>
          </mxGeometry>
        </mxCell>
        <mxCell id="CMkOfORL7H792F49X8Uy-17" value="Apps Service to manage integrations, Social media list and app&#39;s custom functionality" style="rounded=0;whiteSpace=wrap;html=1;" vertex="1" parent="1">
          <mxGeometry x="640" y="490" width="230" height="80" as="geometry" />
        </mxCell>
        <mxCell id="CMkOfORL7H792F49X8Uy-19" value="Apps Database&lt;br&gt;(Postgres for v1.0)" style="rounded=0;whiteSpace=wrap;html=1;" vertex="1" parent="1">
          <mxGeometry x="1030" y="490" width="150" height="80" as="geometry" />
        </mxCell>
        <mxCell id="CMkOfORL7H792F49X8Uy-31" value="User" style="text;html=1;strokeColor=none;fillColor=none;align=center;verticalAlign=middle;whiteSpace=wrap;rounded=0;" vertex="1" parent="1">
          <mxGeometry x="25" y="380" width="60" height="30" as="geometry" />
        </mxCell>
      </root>
    </mxGraphModel>
  </diagram>
</mxfile>
